<svg width="253" height="83" viewBox="0 0 253 83" fill="none" xmlns="http://www.w3.org/2000/svg">
<g clip-path="url(#clip0)">
<path d="M100.036 62.1982C99.759 61.9218 99.6205 61.5762 99.6205 61.1616V21.9076C99.6205 21.493 99.759 21.0783 100.036 20.8019C100.313 20.5254 100.66 20.3872 101.075 20.3872H116.732C121.651 20.3872 125.53 21.5621 128.301 23.8427C131.072 26.1233 132.527 29.3714 132.527 33.587C132.527 36.4896 131.834 38.9775 130.38 40.9817C128.925 42.9859 126.985 44.4372 124.422 45.2665L133.22 60.6087C133.358 60.816 133.428 61.0924 133.428 61.2998C133.428 61.6453 133.289 61.9909 133.012 62.1982C132.735 62.4055 132.458 62.5437 132.111 62.5437H126.639C126.015 62.5437 125.53 62.4055 125.184 62.1291C124.837 61.8527 124.56 61.438 124.214 60.9542L116.386 46.6487H108.072V61.0925C108.072 61.5071 107.934 61.8527 107.657 62.1291C107.38 62.4055 107.033 62.5437 106.617 62.5437H101.145C100.66 62.6129 100.313 62.4746 100.036 62.1982ZM116.593 39.876C119.018 39.876 120.819 39.3231 122.066 38.2173C123.313 37.1116 123.937 35.5912 123.937 33.5179C123.937 31.4447 123.313 29.8551 122.066 28.7494C120.819 27.6437 119.018 27.0908 116.593 27.0908H108.072V39.876H116.593Z" fill="white"/>
<path d="M140.702 62.1982C140.425 61.9218 140.286 61.5762 140.286 61.1616V21.9076C140.286 21.493 140.425 21.0783 140.702 20.8019C140.979 20.5254 141.325 20.3872 141.741 20.3872H168.343C168.759 20.3872 169.175 20.5254 169.452 20.8019C169.729 21.0783 169.867 21.4238 169.867 21.9076V25.9159C169.867 26.3306 169.729 26.6761 169.452 26.9526C169.175 27.229 168.828 27.3672 168.343 27.3672H148.461V38.01H167.027C167.443 38.01 167.858 38.1482 168.136 38.4247C168.413 38.7011 168.551 39.0467 168.551 39.4613V43.1932C168.551 43.6079 168.413 43.9534 168.136 44.2298C167.858 44.5063 167.512 44.6445 167.027 44.6445H148.461V55.7019H168.828C169.244 55.7019 169.66 55.8402 169.937 56.1166C170.214 56.393 170.352 56.7386 170.352 57.2223V61.2307C170.352 61.6453 170.214 61.9909 169.937 62.2673C169.66 62.5437 169.313 62.682 168.828 62.682H141.741C141.325 62.6129 141.048 62.4746 140.702 62.1982Z" fill="white"/>
<path d="M174.44 62.2673C174.163 62.06 174.024 61.7144 174.024 61.3689L174.163 60.816L188.711 21.9076C188.988 20.871 189.681 20.3872 190.858 20.3872H197.44C198.479 20.3872 199.172 20.871 199.587 21.9076L214.066 60.816C214.135 60.9542 214.135 61.0925 214.135 61.3689C214.135 61.7144 213.997 62.06 213.789 62.2673C213.581 62.4746 213.235 62.6129 212.958 62.6129H207.693C207.139 62.6129 206.792 62.4746 206.515 62.2673C206.238 62.06 206.03 61.7835 205.961 61.5071L203.12 54.1815H185.178L182.337 61.5071C181.991 62.2673 181.437 62.682 180.605 62.682H175.271C174.994 62.6129 174.717 62.4746 174.44 62.2673ZM200.973 47.2015L194.114 28.5421L187.256 47.2015H200.973Z" fill="white"/>
<path d="M220.232 62.1982C219.955 61.9218 219.816 61.5762 219.816 61.1616V21.9076C219.816 21.493 219.955 21.0783 220.232 20.8019C220.509 20.5254 220.855 20.3872 221.271 20.3872H237.482C242.331 20.3872 246.142 21.493 248.913 23.7736C251.684 26.0542 253.069 29.3714 253.069 33.7253C253.069 38.0791 251.684 41.3964 248.913 43.6079C246.142 45.8193 242.331 46.9251 237.482 46.9251H228.476V61.0233C228.476 61.438 228.337 61.7835 228.06 62.06C227.783 62.3364 227.437 62.4746 227.021 62.4746H221.271C220.855 62.6129 220.509 62.4746 220.232 62.1982ZM237.136 40.3597C239.491 40.3597 241.292 39.8069 242.539 38.7011C243.786 37.5954 244.41 35.9368 244.41 33.7944C244.41 31.7211 243.786 30.0625 242.608 28.8876C241.431 27.7128 239.56 27.0908 237.136 27.0908H228.337V40.3597H237.136Z" fill="white"/>
<path fill-rule="evenodd" clip-rule="evenodd" d="M22.5151 61.2306C27.0873 63.3039 31.7982 67.2431 33.9458 71.0441C18.497 71.0441 8.79819 64.8243 3.39458 53.9742C18.012 48.4455 28.8193 55.2182 36.8554 70.5604L43.991 80.3739C55.5602 62.751 57.3614 55.4946 61.5181 40.8435C58.3313 50.1732 54.3133 59.572 48.7711 67.3122C39.4187 40.2906 49.0482 14.8585 67.753 0H4.36446C1.93976 0 0 1.93505 0 4.35387V78.6461C0 81.0649 1.93976 83 4.36446 83H42.1205C38.6566 73.2556 31.4518 63.5112 22.5151 61.2306Z" fill="white"/>
<path fill-rule="evenodd" clip-rule="evenodd" d="M78.8374 0H76.8976C88.8133 21.7003 81.0542 62.1982 51.4729 70.8368C48.9789 74.8451 46.9006 78.8535 45.8615 83H78.8374C81.2621 83 83.2018 81.0649 83.2018 78.6461V4.35387C83.2018 1.93505 81.2621 0 78.8374 0Z" fill="white"/>
</g>
<defs>
<clipPath id="clip0">
<rect width="253" height="83" fill="white"/>
</clipPath>
</defs>
</svg>
