<svg width="160" height="100" viewBox="0 0 160 100" fill="none" xmlns="http://www.w3.org/2000/svg">
<g clip-path="url(#clip0)">
<path d="M98.628 92.0561L92.7536 87.6947L88.116 93.9252L94.4541 98.5981C95.6908 99.6885 97.2367 100.156 98.7826 100.156C100.792 100.156 102.957 99.2212 104.193 97.5078L107.594 93.4579L101.72 88.4735L98.628 92.0561Z" fill="#F79221"/>
<path d="M78.3768 50.624C79.3043 50.3125 80.3865 50.4682 81.314 50.9355L103.42 62.462C105.739 63.7081 108.522 62.7735 109.758 60.4371C110.686 58.7237 111.15 56.6987 111.304 54.6738L111.768 39.409H117.179C117.952 39.409 118.57 39.7206 119.034 40.1878L141.295 63.8639C143.459 66.0445 146.242 67.2907 149.333 67.2907H160.155V59.5025H149.333C148.406 59.5025 147.478 59.191 146.86 58.4121L124.599 34.7361C122.589 32.7112 119.961 31.4651 117.179 31.4651H112.077L112.85 5.29688L110.377 4.3623C91.3623 -3.11433 73.1208 0.623984 55.6522 4.20654C38.4928 7.63333 22.2609 11.0601 5.25604 4.3623L0 2.33738V75.2346L2.47343 76.1692C10.5121 79.4402 18.3961 80.5305 26.1256 80.5305C36.4831 80.5305 46.5314 78.5056 56.4251 76.4807C59.2077 75.8576 61.9903 75.3903 64.7729 74.7673V74.923C62.6087 78.6614 63.5362 83.3343 67.0918 85.8265L73.5845 90.3436C75.1304 91.434 76.9855 92.057 78.9952 92.057C79.6135 92.057 80.2319 92.057 80.8502 91.9012C83.3237 91.434 85.6425 89.8763 87.0338 87.8514C88.5797 85.515 89.0435 82.5555 88.2705 79.7517C87.6522 77.4153 86.1063 75.5461 84.0966 74.1442L82.3961 73.0539L78.0676 79.4402L80.0773 80.8421C80.6956 81.1536 80.8502 81.7766 80.8502 82.0882C80.8502 82.3997 81.0048 83.0227 80.5411 83.49C80.2319 84.1131 79.6135 84.2688 79.3043 84.2688C78.9952 84.2688 78.3768 84.4246 77.913 83.9573L71.5749 79.5959C71.4203 79.4402 71.4203 79.2844 71.4203 79.1287L74.8213 73.3654C75.7488 73.2097 76.6763 73.0539 77.6039 73.0539L85.3333 71.8078L96.9275 78.9729C97.5459 79.4402 98.3188 79.9075 98.7826 80.5305L106.048 87.5399C111.614 92.9916 119.034 95.9511 126.763 95.9511C127.691 95.9511 128.773 95.9511 129.7 95.7953L132.174 95.4838C133.256 95.328 134.338 95.1723 135.42 94.8607L159.072 95.0165V87.2283H147.169L148.097 86.2938L142.686 80.6863L139.13 84.1131C136.966 86.138 134.338 87.5399 131.401 87.6956L128.928 88.0072C122.435 88.6302 116.097 86.4495 111.459 81.9324L104.348 74.923C103.42 73.9885 102.338 73.0539 101.101 72.4308L78.3768 58.2564L77.7585 57.6333C76.8309 57.166 76.2126 56.3872 75.9034 55.4526C75.5942 54.5181 75.7488 53.4277 76.2126 52.4931C76.6763 51.5586 77.4493 50.9355 78.3768 50.624ZM88.8889 21.4963C91.9807 21.4963 95.0725 21.652 98.0097 22.1193L97.0821 29.9075C94.4541 29.5959 91.8261 29.4402 88.8889 29.4402H88.2705V21.652L88.8889 21.4963ZM78.686 22.1193L79.6135 29.9075C76.8309 30.219 74.0483 30.6863 70.6473 31.1536L69.256 23.5212C72.657 22.8981 75.7488 22.4308 78.686 22.1193ZM49.7778 57.7891V62.462H43.7488V57.9449C38.4928 57.4776 33.5459 55.1411 31.3816 49.8452L36.9469 47.5087C38.1836 50.4682 42.3575 52.4931 46.2222 52.4931C50.3961 52.4931 54.2609 51.0913 54.2609 47.353C54.2609 44.2377 50.3961 43.1474 46.0676 42.5243C39.4203 41.7455 32.7729 40.6551 32.7729 32.7112C32.7729 26.4807 38.1836 23.6769 43.5942 23.0539V19.004H49.6232V23.0539C53.6425 23.6769 57.1981 25.2346 59.3623 29.5959L54.2609 31.9324C53.0242 29.9075 49.6232 28.3498 46.3768 28.3498C42.5121 28.3498 38.9565 29.4402 38.9565 32.867C38.9565 35.9822 42.6667 36.6053 46.5314 37.0726C53.3333 37.8514 60.7536 39.0975 60.7536 47.5087C60.9082 53.895 55.6522 57.4776 49.7778 57.7891Z" fill="#F79221"/>
</g>
<defs>
<clipPath id="clip0">
<rect width="160" height="100" fill="white"/>
</clipPath>
</defs>
</svg>
