<svg width="128" height="128" viewBox="0 0 128 128" fill="none" xmlns="http://www.w3.org/2000/svg">
<g clip-path="url(#clip0)">
<path d="M25.6 59.7V87.4C25.6 87.4 44.2 98.1 63.1 98.1C82.6 98.1 102.4 87.4 102.4 87.4V59.7L64 76.8L25.6 59.7ZM117.3 85.3V78.9H115.2V53.3L108.8 57.6V78.9H106.7V85.3H108.8L104.5 106.6H119.4L115.1 85.3H117.3ZM106.7 53.3L72.6 49C72.6 49 66.6 50.9 64.1 51.1C59.8 51.5 57.8 50.4 57.7 46.8C57.6 43.2 58.6 41.1 64.1 40.4C69.6 39.7 72.6 44.7 72.6 44.7L113.1 51.1L128 44.7L64 21.3L0 44.8L64 72.5L106.7 53.3Z" fill="#F79221"/>
</g>
<defs>
<clipPath id="clip0">
<rect width="128" height="128" fill="white"/>
</clipPath>
</defs>
</svg>
