<svg width="104" height="116" viewBox="0 0 104 116" fill="none" xmlns="http://www.w3.org/2000/svg">
<path d="M4.33325 111.65V15.95H88.111V111.65H4.33325ZM69.3332 59.45C68.4666 59.45 67.8888 60.03 67.8888 60.9V92.8C67.8888 93.67 68.4666 94.25 69.3332 94.25C70.1999 94.25 70.7777 93.67 70.7777 92.8V60.9C70.7777 60.03 70.1999 59.45 69.3332 59.45ZM57.7777 68.15C56.911 68.15 56.3332 68.73 56.3332 69.6V92.8C56.3332 93.67 56.911 94.25 57.7777 94.25C58.6444 94.25 59.2221 93.67 59.2221 92.8V69.6C59.2221 68.73 58.6444 68.15 57.7777 68.15ZM46.2221 71.05C45.3555 71.05 44.7777 71.63 44.7777 72.5V92.8C44.7777 93.67 45.3555 94.25 46.2221 94.25C47.0888 94.25 47.6666 93.67 47.6666 92.8V72.5C47.6666 71.63 47.0888 71.05 46.2221 71.05ZM34.6666 68.15C33.7999 68.15 33.2221 68.73 33.2221 69.6V92.8C33.2221 93.67 33.7999 94.25 34.6666 94.25C35.5332 94.25 36.111 93.67 36.111 92.8V69.6C36.111 68.73 35.5332 68.15 34.6666 68.15ZM23.111 79.75C22.2444 79.75 21.6666 80.33 21.6666 81.2V92.8C21.6666 93.67 22.2444 94.25 23.111 94.25C23.9777 94.25 24.5555 93.67 24.5555 92.8V81.2C24.5555 80.33 23.9777 79.75 23.111 79.75ZM34.6666 47.85C34.2332 47.85 33.9444 47.995 33.6555 48.285L19.211 62.785C18.9221 63.075 18.7777 63.365 18.7777 63.8C18.7777 64.235 18.9221 64.525 19.211 64.815C19.4999 65.105 19.7888 65.25 20.2221 65.25C20.6555 65.25 20.9444 65.105 21.2332 64.815L34.9555 51.185L48.3888 59.305C48.6777 59.45 48.8221 59.45 49.111 59.45C49.5444 59.45 49.8332 59.305 50.1221 59.015L70.7777 38.28V46.4C70.7777 47.27 71.3555 47.85 72.2221 47.85C73.0888 47.85 73.6666 47.27 73.6666 46.4V34.8C73.6666 33.93 73.0888 33.35 72.2221 33.35H60.6666C59.7999 33.35 59.2221 33.93 59.2221 34.8C59.2221 35.67 59.7999 36.25 60.6666 36.25H68.7555L48.8221 56.115L35.3888 47.995C35.2444 47.995 34.9555 47.85 34.6666 47.85Z" fill="#F79221"/>
<path d="M101.111 0H20.2221C18.6333 0 17.3333 1.305 17.3333 2.9C17.3333 4.495 18.6333 5.8 20.2221 5.8H98.2221V95.7C98.2221 97.295 99.5221 98.6 101.111 98.6C102.7 98.6 104 97.295 104 95.7V2.9C104 1.305 102.7 0 101.111 0Z" fill="#F79221"/>
</svg>
