<svg width="337" height="111" viewBox="0 0 337 111" fill="none" xmlns="http://www.w3.org/2000/svg">
<g clip-path="url(#clip0)">
<path d="M133.275 83.1354C132.894 82.7537 132.741 82.2957 132.741 81.7613V29.3149C132.741 28.7042 132.894 28.2462 133.275 27.8645C133.656 27.4828 134.114 27.3301 134.648 27.3301H155.539C162.096 27.3301 167.204 28.8569 170.94 31.9105C174.676 34.9642 176.506 39.3156 176.506 44.9649C176.506 48.8583 175.515 52.1409 173.685 54.8129C171.779 57.4848 169.11 59.3934 165.755 60.5385L177.497 81.0742C177.649 81.3796 177.726 81.685 177.726 81.9903C177.726 82.4484 177.573 82.9064 177.192 83.2118C176.811 83.5171 176.429 83.6698 176.048 83.6698H168.729C167.89 83.6698 167.204 83.5171 166.746 83.1354C166.289 82.7537 165.908 82.2193 165.527 81.5323L155.157 62.447H143.949V81.7613C143.949 82.2957 143.797 82.7537 143.416 83.1354C143.034 83.5171 142.577 83.6698 142.043 83.6698H134.724C134.114 83.6698 133.656 83.5171 133.275 83.1354ZM155.234 53.2861C158.436 53.2861 160.876 52.5226 162.553 51.0722C164.154 49.6217 164.993 47.5605 164.993 44.8122C164.993 42.0639 164.154 39.9264 162.553 38.4759C160.952 36.9491 158.512 36.1856 155.234 36.1856H143.873V53.2861H155.234Z" fill="#F79221"/>
<path d="M187.485 83.1354C187.104 82.7537 186.951 82.2957 186.951 81.7613V29.3149C186.951 28.7042 187.104 28.2462 187.485 27.8645C187.866 27.4828 188.324 27.3301 188.857 27.3301H224.311C224.921 27.3301 225.378 27.4828 225.76 27.8645C226.141 28.2462 226.293 28.7042 226.293 29.3149V34.6588C226.293 35.2696 226.141 35.7276 225.76 36.033C225.378 36.4147 224.921 36.5674 224.311 36.5674H197.854V50.8431H222.557C223.167 50.8431 223.625 50.9958 224.006 51.3775C224.387 51.7592 224.54 52.2173 224.54 52.7517V57.7138C224.54 58.3246 224.387 58.7826 224.006 59.088C223.625 59.4697 223.167 59.6224 222.557 59.6224H197.854V74.3562H224.921C225.531 74.3562 225.988 74.5089 226.37 74.8906C226.751 75.2723 226.903 75.7304 226.903 76.3411V81.685C226.903 82.2957 226.751 82.7537 226.37 83.0591C225.988 83.4408 225.531 83.5935 224.921 83.5935H188.857C188.324 83.6698 187.866 83.5172 187.485 83.1354Z" fill="#F79221"/>
<path d="M232.317 83.2118C231.935 82.9065 231.783 82.4484 231.783 81.9904L231.935 81.227L251.301 29.2387C251.683 27.8645 252.598 27.2538 254.122 27.2538H262.891C264.263 27.2538 265.254 27.9409 265.712 29.2387L285.078 81.227C285.154 81.3797 285.154 81.6087 285.154 81.9904C285.154 82.4484 285.001 82.9065 284.696 83.2118C284.391 83.5172 284.01 83.6699 283.553 83.6699H276.538C275.852 83.6699 275.318 83.5172 274.937 83.2118C274.556 82.9065 274.327 82.5248 274.175 82.1431L270.362 72.2951H246.422L242.61 82.1431C242.152 83.1355 241.39 83.6699 240.246 83.6699H233.231C233.079 83.6699 232.698 83.5172 232.317 83.2118ZM267.694 63.0578L258.545 38.1706L249.472 63.0578H267.694Z" fill="#F79221"/>
<path d="M293.312 83.1355C292.931 82.7537 292.778 82.2957 292.778 81.7613V29.3149C292.778 28.7042 292.931 28.2462 293.312 27.8645C293.693 27.4828 294.151 27.3301 294.684 27.3301H316.262C322.666 27.3301 327.774 28.8569 331.51 31.9105C335.246 34.9642 337.076 39.392 337.076 45.2702C337.076 51.1485 335.246 55.5763 331.587 58.5536C327.927 61.5309 322.819 63.0577 316.338 63.0577H304.367V81.914C304.367 82.4484 304.215 82.9064 303.834 83.2881C303.453 83.6698 302.995 83.8225 302.461 83.8225H294.837C294.151 83.6698 293.693 83.5172 293.312 83.1355ZM315.88 53.9731C319.006 53.9731 321.37 53.2097 323.047 51.7592C324.725 50.3088 325.563 48.0949 325.563 45.1939C325.563 42.3693 324.725 40.2317 323.124 38.6286C321.522 37.0254 319.083 36.262 315.88 36.262H304.139V53.9731H315.88Z" fill="#F79221"/>
<path fill-rule="evenodd" clip-rule="evenodd" d="M29.964 81.8377C35.9873 84.586 42.3156 89.8535 45.1367 94.892C24.5507 94.892 11.6654 86.5708 4.42217 72.066C23.9407 64.6609 38.2747 73.7455 48.9489 94.2813L58.4032 107.336C73.8045 83.7462 76.2443 74.0509 81.8102 54.4312C77.5405 66.8748 72.2034 79.4711 64.8077 89.7772C52.5324 53.8968 65.3414 19.8487 90.2733 0H5.87081C2.59231 0 0 2.5956 0 5.87827V105.198C0 108.404 2.59231 111.076 5.87081 111.076H56.1921C51.5412 97.9457 41.8581 84.8913 29.964 81.8377Z" fill="#40AE49"/>
<path fill-rule="evenodd" clip-rule="evenodd" d="M104.989 0H102.396C118.255 29.086 107.886 83.1355 68.5437 94.7393C65.189 100.083 62.4442 105.427 61.0718 111H105.065C108.267 111 110.936 108.404 110.936 105.122V5.87827C110.859 2.5956 108.191 0 104.989 0Z" fill="#40AE49"/>
</g>
<defs>
<clipPath id="clip0">
<rect width="337" height="111" fill="white"/>
</clipPath>
</defs>
</svg>
