<svg width="160" height="160" viewBox="0 0 160 160" fill="none" xmlns="http://www.w3.org/2000/svg">
<path d="M120 37.5H87.5V27.5C87.5 26 86.5 25 85 25H75C73.5 25 72.5 26 72.5 27.5V37.5H42.5C41 37.5 40 38.5 40 40V60C40 61.5 41 62.5 42.5 62.5H72.5H87.5H120L135 50L120 37.5Z" fill="#F79221"/>
<path d="M117.5 72.5H87.5V65H72.5V72.5H40L25 85L40 97.5H72.5H87.5H117.5C119 97.5 120 96.5 120 95V75C120 73.5 119 72.5 117.5 72.5Z" fill="#F79221"/>
<path d="M72.5 132.5C72.5 134 73.5 135 75 135H85C86.5 135 87.5 134 87.5 132.5V100H72.5V132.5Z" fill="#F79221"/>
</svg>
