<svg width="128" height="128" viewBox="0 0 128 128" fill="none" xmlns="http://www.w3.org/2000/svg">
<g clip-path="url(#clip0)">
<path d="M33.4 27.8V30.6H64V27.8H33.4ZM33.4 55.7V58.5H94.6V55.7H33.4ZM33.4 72.3V75.1H94.6V72.3H33.4ZM33.4 80.7V83.5H94.6V80.7H33.4ZM108.5 0H19.5C18 0 16.7 1.2 16.7 2.8V108.5C16.7 110 17.9 111.3 19.5 111.3H64V105.7H22.3V5.6H105.8V105.8H103V111.4H108.6C110.1 111.4 111.4 110.2 111.4 108.6V2.8C111.3 1.2 110.1 0 108.5 0ZM33.4 39V41.8H94.6V39H33.4ZM33.4 64V66.8H94.6V64H33.4ZM33.4 47.3V50.1H94.6V47.3H33.4ZM33.4 19.5V22.3H64V19.5H33.4Z" fill="#F79221"/>
<path d="M95.2 109.6C96.8 107.5 97.8 104.8 97.8 101.9C97.8 94.8 92 89 84.9 89C77.7 89 72 94.8 72 101.9C72 104.8 73 107.5 74.6 109.6L66.8 128C67.1 127.7 69.5 125.3 72.3 125.3C74.8 125.3 77.9 128.1 77.9 128.1L84.8 114.8L91.8 128.1C91.8 128.1 94.2 125.3 97.4 125.3C99.7 125.3 103 128.1 103 128.1L95.2 109.6ZM79.1 99.6C77.4 97.7 77.7 94.7 79.6 93C81.5 91.3 84.4 91.5 86 93.5C87.6 95.4 82.3 94.7 80.4 96.4C78.5 98 80.7 101.5 79.1 99.6ZM83.8 109.7C82.2 107.8 87.5 108.5 89.4 106.8C91.3 105.1 89.1 101.6 90.7 103.6C92.4 105.5 92.1 108.5 90.2 110.2C88.3 111.8 85.4 111.6 83.8 109.7Z" fill="#F79221"/>
</g>
<defs>
<clipPath id="clip0">
<rect width="128" height="128" fill="white"/>
</clipPath>
</defs>
</svg>
