<svg width="111" height="114" viewBox="0 0 111 114" fill="none" xmlns="http://www.w3.org/2000/svg">
<path d="M42.2266 87.7878V114H32.2909V97.7143H9.93566V114H0V46.9959C0 44.2041 2.17343 42.0327 4.96783 42.0327C7.76224 42.0327 9.93566 44.2041 9.93566 46.9959V87.7878H42.2266ZM21.8895 23.8857C28.565 23.8857 33.8434 18.4571 33.8434 11.9429C33.8434 5.42857 28.565 0 21.8895 0C15.214 0 9.93566 5.42857 9.93566 11.9429C9.93566 18.4571 15.3692 23.8857 21.8895 23.8857ZM33.6881 54.5959H62.0979C64.4266 54.5959 66.4448 52.8898 66.6 50.5633C66.7552 48.0816 64.7371 46.0653 62.4084 46.0653H38.9664L30.428 29.3143H13.0406V79.102C13.0406 81.7388 15.0587 83.7551 17.6979 83.7551H48.9021V114H64.7371V74.9143C64.7371 70.5714 61.3217 67.1592 56.9748 67.1592H29.9622V47.151L33.6881 54.5959ZM51.8517 60.4898C51.8517 62.5061 53.4042 64.0571 55.4224 64.0571H82.9007V114H95.3203V64.0571H107.274C109.292 64.0571 110.845 62.5061 110.845 60.4898C110.845 58.4735 109.292 56.9225 107.274 56.9225H55.4224C53.4042 56.9225 51.8517 58.4735 51.8517 60.4898Z" fill="#F79221"/>
</svg>
